<?xml version="1.0" encoding="utf-8"?>
<!-- Generator: Adobe Illustrator 19.0.0, SVG Export Plug-In . SVG Version: 6.00 Build 0)  -->
<!DOCTYPE svg PUBLIC "-//W3C//DTD SVG 1.1//EN" "http://www.w3.org/Graphics/SVG/1.1/DTD/svg11.dtd">
<svg version="1.1" id="Calque_1" xmlns="http://www.w3.org/2000/svg" xmlns:xlink="http://www.w3.org/1999/xlink" x="0px" y="0px"
	 viewBox="0 0 800 600" style="enable-background:new 0 0 800 600;" xml:space="preserve">
<style type="text/css">
	.st0{fill:#FFFFFF;}
</style>
<rect id="XMLID_1_" y="-2" width="800" height="602"/>
<g id="XMLID_3_">
	<path id="XMLID_4_" class="st0" d="M256.4,290.2c-0.8-0.6-2.5-1.5-3.7-2.1l1.3-1.7c1.1,0.5,2.8,1.4,3.7,1.9L256.4,290.2z
		 M258.9,292.6c-1,2-2.3,4.3-3.5,6.2l-2-1.6c1-1.5,2.5-3.9,3.7-6.2L258.9,292.6z M257.4,284.9c-0.8-0.6-2.4-1.6-3.5-2.3l1.4-1.7
		c1.1,0.6,2.7,1.5,3.6,2.1L257.4,284.9z M271.1,295.5v2.3h-12.9v-2.3h5.1v-10.9h-4v-2.3h10.9v2.3h-4.4v10.9H271.1z"/>
	<path id="XMLID_9_" class="st0" d="M277.5,291.8c-0.8,1.3-1.7,3-2.7,4.2l-2-1.2c1.1-1,2.1-2.6,2.8-4L277.5,291.8z M277,284.4h-4.1
		v-2.2h4.1v-1.6h2.3v1.6h4.6v-1.6h2.4v1.6h4v2.2h-4v1.8h-2.4v-1.8h-4.6v1.8H277V284.4z M288.6,296.2c-0.2-1-0.7-2.4-1.3-3.8
		c-0.2,3.4-0.5,4.9-1,5.5c-0.5,0.7-1.1,0.8-1.9,0.9c-0.7,0.1-1.8,0.1-2.9,0c0-0.6-0.3-1.5-0.7-2.1c1.1,0.1,2.1,0.1,2.6,0.1
		c0.4,0,0.6-0.1,0.8-0.3c0.4-0.4,0.7-2.3,0.8-6.7h-3.1c-0.6,4-2.2,7.3-7.4,9.2c-0.2-0.6-0.8-1.4-1.4-1.9c4.5-1.5,5.9-4.1,6.4-7.3
		h-5.3v-2.2h5.5c0-0.6,0.1-1.2,0.1-1.9h2.4c0,0.7-0.1,1.3-0.1,1.9h5.4c0,0,0,0.7,0,1c0,0.9-0.1,1.8-0.1,2.5l1.5-0.5
		c0.7,1.4,1.5,3.4,1.9,4.6L288.6,296.2z"/>
	<path id="XMLID_13_" class="st0" d="M308.3,287.2c-0.3-0.6-0.8-1.2-1.5-1.9c-1.4,1.5-3.3,2.7-5.5,3.6h6.6V299h-2.4v-0.7h-7.8v0.8
		h-2.3v-8.5c-0.8,0.2-1.5,0.3-2.2,0.4c-0.3-0.5-1-1.5-1.4-2c2.9-0.4,5.8-0.9,8.1-1.9v-6.5h2.3v5.4c0.9-0.5,1.7-1.1,2.3-1.9l2,0.9
		c-0.8-0.9-1.7-1.7-2.5-2.5l1.9-1.1c1.5,1.3,3.4,3.1,4.3,4.4L308.3,287.2z M298.6,282.3c-0.9,2-2.3,3.9-3.7,5.1
		c-0.5-0.4-1.4-1.1-2-1.4c1.4-1,2.6-2.7,3.3-4.4L298.6,282.3z M305.7,290.6h-7.8v0.9h7.8V290.6z M297.9,294.1h7.8v-1h-7.8V294.1z
		 M305.7,296.6v-1h-7.8v1H305.7z"/>
	<path id="XMLID_19_" class="st0" d="M319.6,281.8c-1.3,3.2-3.4,6.3-5.4,8.2c-0.5-0.4-1.6-1.3-2.2-1.7c2.1-1.6,4-4.4,5.1-7.2
		L319.6,281.8z M325.2,291c1.6,2.2,3.5,5,4.5,6.8l-2.3,1.3c-0.3-0.7-0.7-1.4-1.2-2.2c-9.5,0.8-10.9,0.9-11.9,1.2
		c-0.1-0.5-0.6-1.8-0.9-2.5c0.7-0.2,1.1-0.7,1.9-1.6c0.8-0.8,3.2-4.2,4.7-7.6l2.6,1.1c-1.4,2.7-3.3,5.4-5.1,7.5l7.4-0.5
		c-0.6-0.9-1.2-1.8-1.8-2.6L325.2,291z M324.8,280.9c1.2,2.4,3.6,5.3,5.5,7c-0.6,0.5-1.5,1.4-2,2c-2-2-4.4-5.2-5.9-8.1L324.8,280.9z
		"/>
	<path id="XMLID_23_" class="st0" d="M346,290.5c-0.6,1.5-1.4,2.8-2.4,3.8c2.2,0.9,4.3,1.9,5.8,2.8l-1.9,2c-1.4-0.9-3.5-2-5.9-3.1
		c-2.2,1.5-4.9,2.4-8,3c-0.3-0.6-0.9-1.7-1.4-2.2c2.7-0.4,5-1,6.8-2c-1.6-0.7-3.2-1.3-4.7-1.7l0,0c0.6-0.8,1.2-1.7,1.8-2.7h-4.1
		v-2.2h5.3c0.5-1,1-2,1.3-2.9l2.6,0.5c-0.3,0.8-0.7,1.6-1.1,2.4h9.2v2.2H346z M334.9,287.2h-2.4v-4.4h6.9c-0.2-0.6-0.5-1.1-0.8-1.6
		l2.5-0.6c0.4,0.7,0.8,1.5,1.1,2.2h7v4.4h-2.5V285h-11.7V287.2z M339.1,290.5c-0.4,0.6-0.7,1.2-1.1,1.7c1.1,0.4,2.1,0.8,3.2,1.2
		c0.8-0.8,1.5-1.8,2-2.9H339.1z"/>
	<path id="XMLID_27_" class="st0" d="M369.4,284h-14.1v5.2c0,3.1-0.3,7.4-2.2,10c-0.4-0.4-1.4-1.2-1.9-1.5c1.7-2.3,1.8-5.8,1.8-8.5
		v-7.4h16.5V284z M356.2,286.3h13v2.2h-4.8v7.7c0,1.3-0.3,2-1.2,2.3c-0.9,0.4-2.2,0.4-4,0.4c-0.1-0.7-0.5-1.7-0.8-2.4
		c1.2,0.1,2.7,0.1,3.1,0.1c0.4,0,0.5-0.1,0.5-0.4v-7.6h-5.7V286.3z"/>
	<path id="XMLID_30_" class="st0" d="M382.1,288.4c1.3,3.8,3.7,6.9,7.4,8.4c-0.6,0.5-1.4,1.5-1.7,2.2c-3.6-1.7-5.9-4.6-7.4-8.4
		c-1.1,3.3-3.2,6.4-7.4,8.4c-0.4-0.7-1.1-1.5-1.8-2c4.5-2,6.4-5.3,7.2-8.7h-6.8v-2.4h7.2c0.2-1.9,0.2-3.6,0.2-5.3h2.6
		c0,1.6,0,3.4-0.2,5.3h7.8v2.4H382.1z"/>
	<path id="XMLID_32_" class="st0" d="M394.8,287.7c-0.9,0.9-2,1.7-2.9,2.3c-0.3-0.5-0.8-1.3-1.2-1.7c1.2-0.5,2.4-1.3,3.3-2.3H391
		v-1.9h1.5c-0.2-0.7-0.6-1.7-1-2.4l1.7-0.7c0.5,0.7,1,1.8,1.2,2.4l-1.6,0.7h2v-3.5h2.2v3.5h3.7v1.9h-2.9c0.9,0.5,2,1.2,2.3,1.4
		l-1.2,1.6c-0.4-0.4-1.2-1.1-2-1.7v2.2h-2.2V287.7z M397.9,297.8c-0.4-0.3-0.9-0.7-1.5-1c-1.3,1-2.9,1.7-4.7,2.2
		c-0.2-0.5-0.7-1.4-1.1-1.8c1.4-0.3,2.7-0.8,3.9-1.5c-0.9-0.5-1.9-0.9-2.8-1.3c0.4-0.5,0.7-1.1,1.1-1.8h-1.5v-1.9h2.5
		c0.2-0.4,0.3-0.8,0.5-1.1l2.1,0.4c-0.1,0.3-0.2,0.5-0.3,0.8h2.5l0.4-0.1l1.3,0.5c-0.5,1.7-1.3,3.2-2.3,4.3c0.5,0.3,1,0.6,1.4,0.9
		L397.9,297.8z M395.2,292.6c-0.2,0.4-0.4,0.7-0.6,1c0.5,0.3,1.1,0.5,1.6,0.8c0.6-0.6,1-1.2,1.4-1.9H395.2z M400.5,281.7
		c-0.7,0.9-1.3,1.8-1.8,2.4l-1.5-0.7c0.5-0.7,1-1.8,1.3-2.5L400.5,281.7z M407.8,286.5c-0.4,2.8-1,5.1-1.9,7
		c0.9,1.6,2.1,2.8,3.6,3.6c-0.5,0.4-1.2,1.3-1.5,1.9c-1.4-0.8-2.4-2-3.3-3.4c-1.1,1.5-2.5,2.7-4.4,3.6c-0.2-0.5-0.8-1.5-1.2-1.9
		c2-0.9,3.5-2.1,4.5-3.8c-0.6-1.2-1-2.6-1.4-4.1c-0.3,0.6-0.7,1.2-1,1.8c-0.3-0.4-1.2-1.2-1.7-1.5c1.6-2.1,2.4-5.4,2.9-8.9l2.1,0.3
		c-0.2,1.1-0.4,2.2-0.6,3.3h5.2v2.2H407.8z M403.4,286.5c0.3,1.6,0.7,3.1,1.2,4.5c0.5-1.3,0.8-2.8,1-4.5H403.4z"/>
	<path id="XMLID_39_" class="st0" d="M416.9,291.1c-0.7,0.2-1.3,0.4-2,0.6v4.6c0,1.1-0.2,1.7-0.8,2c-0.6,0.4-1.5,0.5-2.7,0.5
		c-0.1-0.6-0.3-1.5-0.6-2.2c0.7,0,1.4,0,1.6,0c0.2,0,0.3-0.1,0.3-0.3v-4l-1.9,0.5l-0.5-2.3c0.7-0.2,1.5-0.4,2.4-0.6v-3.5h-2.1v-2.2
		h2.1v-3.7h2.1v3.7h2v2.2h-2v2.9l1.7-0.5L416.9,291.1z M424.8,290.9v1.9h3.6v6.3h-2.1v-0.6h-4.8v0.6h-2v-6.3h3.2v-1.9h-3
		c-0.2,2.9-0.8,6.1-2.3,8.3c-0.4-0.4-1.4-1.1-1.9-1.4c1.9-2.9,2.1-7.2,2.1-10.3v-6h10.8v5.7h-3.5v1.7h4v2H424.8z M422.6,288.9v-1.7
		h-2.9v0.3c0,0.5,0,0.9,0,1.4H422.6z M419.7,283.4v1.7h6.3v-1.7H419.7z M426.2,294.7h-4.8v2h4.8V294.7z"/>
	<path id="XMLID_45_" class="st0" d="M437.5,291.1c-0.8,0.2-1.5,0.4-2.3,0.7v4.8c0,1.2-0.2,1.7-0.9,2.1c-0.7,0.4-1.6,0.4-3,0.4
		c-0.1-0.6-0.4-1.5-0.7-2.2c0.8,0,1.6,0,1.8,0c0.3,0,0.4-0.1,0.4-0.4v-4.2l-2.2,0.6l-0.6-2.2c0.8-0.2,1.7-0.4,2.7-0.6v-3.5h-2.4
		v-2.2h2.4v-3.7h2.3v3.7h2v2.2h-2v3c0.7-0.2,1.4-0.4,2.1-0.5L437.5,291.1z M438.1,290.1h9.6v8.9h-2.3v-0.8h-5v0.8h-2.2V290.1z
		 M445.3,286.8c1,0,1.1-0.3,1.3-2.3c0.5,0.4,1.5,0.7,2.1,0.8c-0.3,2.8-1,3.5-3.2,3.5h-3.8c-2.7,0-3.5-0.7-3.5-2.9v-5.3h2.3v2.6
		c2-0.5,3.9-1.1,5.2-1.7l1.7,1.7c-2,0.8-4.6,1.5-7,2v0.8c0,0.7,0.2,0.8,1.3,0.8H445.3z M440.4,292v1.2h5V292H440.4z M445.4,296.4
		v-1.3h-5v1.3H445.4z"/>
	<path id="XMLID_51_" class="st0" d="M456.1,291.2c-0.6,0.2-1.3,0.4-1.9,0.6v4.6c0,1.1-0.2,1.7-0.8,2.1c-0.6,0.4-1.4,0.5-2.5,0.5
		c-0.1-0.6-0.3-1.6-0.6-2.2c0.6,0,1.2,0,1.4,0c0.2,0,0.3-0.1,0.3-0.3v-3.9l-1.6,0.5l-0.5-2.2c0.6-0.1,1.3-0.3,2.1-0.5v-3.6h-1.8
		v-2.2h1.8v-3.7h2.2v3.7h1.5v2.2h-1.5v3l1.6-0.4L456.1,291.2z M468.3,295.8h-4.4v3.2h-2.3v-3.2h-5.8v-2.1h5.8v-1.6h-2.3
		c-0.8,0-1.7,0.1-1.9,0.3c-0.1-0.5-0.5-1.5-0.7-2.1c0.4-0.1,0.7-0.5,1.1-1.2c0.1-0.2,0.4-0.7,0.7-1.2h-1.4v-1.9h2.2
		c0.3-0.7,0.6-1.5,0.8-2.2l2.4,0.5c-0.2,0.6-0.4,1.1-0.7,1.7h5v1.9h-5.8c-0.4,0.7-0.8,1.5-1.1,2.1h1.8v-1.6h2.3v1.6h3.4l0,2.1h-3.4
		v1.6h4.4V295.8z M458.3,285.7h-2.2v-4.2h11.6v4.2h-2.3v-2.1h-7.2V285.7z"/>
	<path id="XMLID_55_" class="st0" d="M477.1,296.5c0,1.1-0.2,1.7-0.8,2.1c-0.6,0.4-1.5,0.4-2.7,0.4c-0.1-0.6-0.3-1.7-0.6-2.3
		c0.7,0,1.4,0,1.7,0c0.2,0,0.3-0.1,0.3-0.4v-3.9h-2.1c-0.2,2.3-0.6,4.7-1.4,6.5c-0.4-0.3-1.4-0.9-1.9-1.1c1.2-2.7,1.3-6.6,1.3-9.5
		v-7.2h6.2V296.5z M474.9,290.4V288H473v0.5c0,0.6,0,1.2,0,1.9H474.9z M473,283.5v2.3h1.9v-2.3H473z M487.9,288.6
		c-0.5,2.7-1.3,4.8-2.4,6.6c0.8,0.9,1.8,1.6,2.9,2.1c-0.5,0.4-1.1,1.3-1.5,1.8c-1-0.6-2-1.3-2.8-2.2c-0.8,0.8-1.6,1.5-2.6,2.1
		c-0.2-0.5-0.7-1.1-1.2-1.6v1.6h-2.2v-17.7h9.1v3.8c0,1-0.2,1.6-1,1.9c-0.8,0.3-1.9,0.3-3.4,0.3c-0.1-0.6-0.4-1.4-0.7-2
		c1,0.1,2.2,0.1,2.5,0c0.3,0,0.4-0.1,0.4-0.3v-1.6h-4.6v4.7h5.7l0.4-0.1L487.9,288.6z M480.4,297.2c0.9-0.5,1.7-1.2,2.4-2
		c-1-1.4-1.7-3.1-2.3-4.9h-0.1V297.2z M482.5,290.3c0.4,1.1,0.9,2.1,1.5,3.1c0.5-0.9,1-2,1.3-3.1H482.5z"/>
	<path id="XMLID_62_" class="st0" d="M506.5,283.4c-1.2,1.7-2.9,3.1-4.9,4.1c1.9,0.4,4,0.7,6.3,0.8c-0.5,0.5-1,1.4-1.3,2.1
		c-3-0.2-5.7-0.7-7.9-1.5c-2.5,0.9-5.3,1.4-8.1,1.8c-0.2-0.6-0.6-1.5-0.9-2.1c2.2-0.2,4.3-0.5,6.3-1c-0.8-0.5-1.4-1-2.1-1.6
		c-0.7,0.5-1.4,0.9-2.2,1.4c-0.3-0.6-0.9-1.4-1.4-1.8c2.8-1.3,4.6-3,5.6-4.7l2.4,0.5c-0.3,0.5-0.6,0.9-1,1.4h7.4l0.3-0.1
		L506.5,283.4z M506.3,291.6c0,0-0.1,0.6-0.1,0.9c-0.4,3.4-0.9,4.9-1.7,5.6c-0.6,0.5-1.2,0.7-2.1,0.7c-0.7,0-2,0-3.3,0
		c0-0.6-0.3-1.5-0.7-2c1.3,0.1,2.7,0.1,3.3,0.1c0.4,0,0.7,0,0.9-0.2c0.4-0.3,0.8-1.3,1.1-3.1h-5.3c-1.3,2.9-3.7,4.5-7.2,5.5
		c-0.2-0.5-0.9-1.5-1.4-1.9c2.9-0.6,4.9-1.7,6-3.5h-4.7v-2h5.6c0.1-0.5,0.2-1.1,0.3-1.7l2.4,0.2c-0.1,0.5-0.2,1-0.3,1.5H506.3z
		 M495.4,284.6c0.8,0.8,1.9,1.5,3.3,2c1.6-0.6,3-1.3,4-2.2h-7.2L495.4,284.6z"/>
	<path id="XMLID_66_" class="st0" d="M526.5,284.1v9.8h-2.5v-1h-4.5v6.2h-2.5v-6.2h-4.4v1.1h-2.4v-9.9h6.8v-3.4h2.5v3.4H526.5z
		 M517.1,290.6v-4.2h-4.4v4.2H517.1z M524.1,290.6v-4.2h-4.5v4.2H524.1z"/>
	<path id="XMLID_70_" class="st0" d="M532.8,287.9c-0.3,2.5-0.8,6-1.4,8.2l-2.4-0.9c0.7-2.1,1.3-5.1,1.5-7.7L532.8,287.9z
		 M536.6,286.3v9.2c0,0.9,0.2,1.1,1.1,1.1h2.8c1,0,1.2-0.6,1.3-3.7c0.6,0.4,1.6,0.8,2.2,1c-0.3,3.7-0.9,4.9-3.3,4.9h-3.3
		c-2.6,0-3.3-0.8-3.3-3.3v-9.2H536.6z M536.4,281c1.8,1.1,4.3,2.9,5.5,4.1l-1.7,1.8c-1.1-1.2-3.5-3.1-5.3-4.3L536.4,281z M545,286.8
		c1.1,2.3,2.1,5.3,2.5,7.3l-2.4,1c-0.3-2-1.3-5.1-2.3-7.4L545,286.8z"/>
</g>
</svg>
